<svg width="66" height="39" viewBox="0 0 66 39" fill="none" xmlns="http://www.w3.org/2000/svg">
<path d="M65.999 0.25H46.749V5.75H56.6215L35.749 26.6225L23.9515 14.7975C23.6959 14.5397 23.3917 14.3352 23.0566 14.1955C22.7215 14.0559 22.3621 13.9841 21.999 13.9841C21.636 13.9841 21.2766 14.0559 20.9414 14.1955C20.6063 14.3352 20.3022 14.5397 20.0465 14.7975L-0.000976562 34.8725L3.87652 38.75L21.999 20.6275L33.7965 32.4525C34.0522 32.7103 34.3563 32.9148 34.6914 33.0545C35.0266 33.1941 35.386 33.2659 35.749 33.2659C36.1121 33.2659 36.4715 33.1941 36.8066 33.0545C37.1417 32.9148 37.4459 32.7103 37.7015 32.4525L60.499 9.6275V19.5H65.999V0.25Z" fill="url(#paint0_linear)"/>
<defs>
<linearGradient id="paint0_linear" x1="32.999" y1="0.25" x2="32.999" y2="38.75" gradientUnits="userSpaceOnUse">
<stop stop-color="#4884FB"/>
<stop offset="1" stop-color="#FF347D"/>
</linearGradient>
</defs>
</svg>
